<svg xmlns="http://www.w3.org/2000/svg" viewBox="0 0 512 512" role="img" aria-label="Adhan">
  <defs>
    <linearGradient id="bg" x1="0" y1="0" x2="1" y2="1">
      <stop offset="0" stop-color="#152448"/>
      <stop offset="1" stop-color="#070b1a"/>
    </linearGradient>
  </defs>
  <rect width="512" height="512" rx="112" fill="url(#bg)"/>
  <path fill="#d4af37" d="M330 98c-86 8-154 80-154 168 0 93 76 168 169 168 28 0 54-7 77-18-32 48-87 80-149 80C159 496 64 401 64 284 64 167 159 72 276 72c28 0 54 5 78 15-8 3-16 7-24 11z"/>
  <path fill="#d4af37" d="M368 86l18 56 58 2-46 36 16 56-46-32-46 32 16-56-46-36 58-2z"/>
</svg>
